<?xml version="1.0" encoding="UTF-8"?>
<svg width="116px" height="36px" viewBox="0 0 116 36" version="1.1" xmlns="http://www.w3.org/2000/svg" xmlns:xlink="http://www.w3.org/1999/xlink">
    <!-- Generator: Sketch 49 (51002) - http://www.bohemiancoding.com/sketch -->
    <title>logo</title>
    <desc>Created with Sketch.</desc>
    <defs>
        <polygon id="path-1" points="0 0.0783140625 22.1483672 0.0783140625 22.1483672 25.5935953 0 25.5935953"></polygon>
        <polygon id="path-3" points="6 36 121.537078 36 121.537078 0 6 0"></polygon>
    </defs>
    <g id="pc" stroke="none" stroke-width="1" fill="none" fill-rule="evenodd">
        <g id="logo" transform="translate(-6.000000, 0.000000)">
            <g id="Group-3" transform="translate(6.000000, 10.406250)">
                <mask id="mask-2" fill="white">
                    <use xlink:href="#path-1"></use>
                </mask>
                <g id="Clip-2"></g>
                <path d="M17.3495391,6.99115781 C17.1747422,6.83337656 16.9960078,6.67995469 16.8137578,6.53075156 C16.6517578,6.39814219 16.4875078,6.26834531 16.3198828,6.14262656 C16.1612578,6.02379844 15.9989766,5.90961094 15.8354297,5.79711094 C15.8285391,5.79289219 15.8215078,5.78839219 15.8144766,5.78417344 C16.0879922,5.99159531 16.3094766,6.26229844 16.4583984,6.57532969 C16.5717422,6.81354844 16.6421953,7.07539219 16.6606172,7.35214219 C16.6638516,7.40009531 16.6679297,7.44776719 16.6679297,7.49656406 C16.6679297,7.57925156 16.6621641,7.66053281 16.6530234,7.74097031 C16.6466953,7.79679844 16.6382578,7.85220469 16.6277109,7.90676719 C16.5465703,8.32709531 16.3430859,8.70354844 16.0555078,8.99801719 C16.0313203,9.02290781 16.0057266,9.04611094 15.9804141,9.06973594 C14.9786016,10.0302047 13.6200234,10.6215328 12.1223672,10.6215328 C9.04239844,10.6215328 6.54546094,8.12473594 6.54546094,5.04462656 C6.54546094,4.97332969 6.54813281,4.90259531 6.55080469,4.83200156 C7.01542969,4.18329844 7.61519531,3.63879844 8.30960156,3.23900156 C8.50057031,3.12917344 8.69800781,3.02904844 8.90233594,2.94200156 C8.35249219,2.73851719 7.80799219,2.52378281 7.27052344,2.29597031 C5.91700781,1.72264219 4.60413281,1.07211094 3.33555469,0.352954688 C3.24260156,0.307814062 3.15232031,0.258454687 3.06738281,0.200939062 C2.99777344,0.160720312 2.92928906,0.118954688 2.85982031,0.0783140625 C1.78024219,1.54095469 0.966445313,3.21115781 0.488460938,5.01832969 C0.171070313,6.21828281 -7.03125e-05,7.47757969 -7.03125e-05,8.77737656 C-7.03125e-05,11.4735797 0.731039063,13.9979391 2.00060156,16.1686266 C2.28592969,16.6353609 2.58630469,17.0915484 2.90242969,17.5362047 C2.90453906,17.5392984 2.90678906,17.5423922 2.90903906,17.5453453 C2.91100781,17.5481578 2.91297656,17.5511109 2.91508594,17.5539234 C5.41933594,21.0701109 8.86183594,23.8712203 12.8769609,25.5935953 C14.0998359,24.9439078 15.2592891,24.1907203 16.3426641,23.3442984 C18.6645234,21.5305172 20.6379141,19.2921891 22.1483672,16.7465953 C22.0624453,15.6251109 21.8543203,14.5379391 21.5301797,13.5012516 C20.7373359,10.9660641 19.2744141,8.72745469 17.3495391,6.99115781" id="Fill-1" fill="#ED2605" mask="url(#mask-2)"></path>
            </g>
            <rect id="Rectangle-3" x="0" y="0" width="128" height="36"></rect>
            <path d="M32.9473359,17.3975344 C33.1221328,17.2397531 33.3008672,17.0863313 33.4831172,16.9371281 C33.6451172,16.8045187 33.8093672,16.6747219 33.9769922,16.5490031 C34.1356172,16.430175 34.2978984,16.3159875 34.4614453,16.2034875 C34.4683359,16.1991281 34.4753672,16.1947688 34.4823984,16.1904094 C34.2088828,16.3979719 33.9873984,16.668675 33.8384766,16.9817063 C33.7251328,17.219925 33.6546797,17.4817688 33.6362578,17.7585188 C33.6330234,17.8064719 33.6289453,17.8541438 33.6289453,17.9029406 C33.6289453,17.9856281 33.6347109,18.0669094 33.6438516,18.1473469 C33.6501797,18.203175 33.6586172,18.2585813 33.6691641,18.3131438 C33.7503047,18.7334719 33.9537891,19.109925 34.2413672,19.4043938 C34.2655547,19.4292844 34.2911484,19.4524875 34.3164609,19.4759719 C35.3182734,20.4365813 36.6768516,21.0279094 38.1745078,21.0279094 C41.2544766,21.0279094 43.7514141,18.5311125 43.7514141,15.4510031 C43.7514141,15.3797063 43.7487422,15.3089719 43.7460703,15.2383781 C43.2814453,14.589675 42.6816797,14.045175 41.9872734,13.6453781 C41.7963047,13.53555 41.5988672,13.435425 41.3945391,13.3483781 C41.9443828,13.1448938 42.4888828,12.9300188 43.0263516,12.7023469 C44.3798672,12.1290188 45.6927422,11.4784875 46.9613203,10.7593313 C47.0542734,10.7141906 47.1446953,10.6648313 47.2294922,10.6073156 C47.2991016,10.5670969 47.3675859,10.5253313 47.4370547,10.4846906 C48.5166328,11.9473313 49.3304297,13.6175344 49.8084141,15.4247063 C50.1258047,16.6246594 50.2969453,17.8839563 50.2969453,19.1837531 C50.2969453,21.8799563 49.5658359,24.4043156 48.2962734,26.5750031 C48.0109453,27.0417375 47.7105703,27.497925 47.3944453,27.9425813 C47.3923359,27.945675 47.3900859,27.9487687 47.3878359,27.9517219 C47.3858672,27.9545344 47.3838984,27.9574875 47.3817891,27.9603 C44.8775391,31.4764875 41.4350391,34.2775969 37.4199141,35.9999719 C36.1970391,35.3502844 35.0375859,34.5970969 33.9542109,33.750675 C31.6323516,31.9368938 29.6589609,29.6985656 28.1485078,27.1529719 C28.2344297,26.0314875 28.4425547,24.9443156 28.7666953,23.9076281 C29.5595391,21.3724406 31.0224609,19.1338313 32.9473359,17.3975344" id="Fill-4" fill="#BC1C03"></path>
            <path d="M28.1485078,27.152775 C28.2344297,26.0312906 28.4441016,24.94665 28.7682422,23.9101031 C29.5610859,21.3749156 31.0238672,19.1363062 32.9487422,17.4000094 C33.1236797,17.2422281 33.3022734,17.0888062 33.4846641,16.9396031 C33.6466641,16.8069937 33.8109141,16.6771969 33.9785391,16.5514781 C34.1370234,16.43265 34.2994453,16.3184625 34.4629922,16.2059625 C34.4866172,16.18965 34.5093984,16.1722125 34.5331641,16.1560406 C34.5716953,16.1284781 34.6112109,16.1026031 34.6515703,16.0777125 C34.8852891,15.9221812 35.1244922,15.7746656 35.3672109,15.6323531 C35.7978047,15.3513844 36.2237578,15.0636656 36.6419766,14.7659625 C37.4664609,14.179275 38.2650703,13.5591187 39.0392109,12.9106969 C39.8253047,12.25215 40.5843984,11.562525 41.3149453,10.8439312 C42.3786328,9.79768125 43.3810078,8.68997812 44.3172891,7.52630625 C44.3431641,7.49241562 44.3693203,7.4590875 44.3970234,7.42688437 C44.3981484,7.42547812 44.3995547,7.42407187 44.4008203,7.42266562 C44.5051641,7.29188437 44.6093672,7.16082187 44.7120234,7.028775 C46.0036641,5.36799375 47.1622734,3.59879062 48.1704141,1.73593125 C48.4775391,1.16836875 48.7701797,0.591665625 49.0490391,0.0070875 C48.8610234,0.002728125 48.6724453,5.625e-05 48.4833047,5.625e-05 C47.9884453,5.625e-05 47.4978047,0.017071875 47.0105391,0.047025 C42.7397578,0.30943125 38.7756797,1.70485313 35.4150234,3.93713437 C33.0623672,3.4794 30.6334922,3.23541562 28.1485078,3.22950937 C25.6632422,3.23541562 23.2345078,3.4794 20.8818516,3.93713437 C17.5211953,1.70485313 13.5571172,0.30943125 9.28619531,0.047025 C8.79907031,0.017071875 8.30842969,5.625e-05 7.81357031,5.625e-05 C7.62442969,5.625e-05 7.43585156,0.002728125 7.24783594,0.0070875 C7.52669531,0.591665625 7.81933594,1.16836875 8.12646094,1.73593125 C9.13446094,3.59879062 10.2932109,5.36799375 11.5847109,7.028775 C11.6875078,7.16082187 11.7915703,7.29188437 11.8960547,7.42266562 C11.8973203,7.42407187 11.8985859,7.42547812 11.8998516,7.42688437 C11.9275547,7.4590875 11.9537109,7.49241562 11.9795859,7.52630625 C12.9157266,8.68997812 13.9182422,9.79768125 14.9817891,10.8439312 C15.7123359,11.562525 16.4715703,12.25215 17.2576641,12.9106969 C18.0316641,13.5591187 18.8304141,14.179275 19.6547578,14.7659625 C20.0731172,15.0636656 20.4990703,15.3513844 20.9296641,15.6323531 C21.1723828,15.7746656 21.4115859,15.9221812 21.6453047,16.0777125 C21.6856641,16.1026031 21.7251797,16.1284781 21.7637109,16.1560406 C21.7874766,16.1722125 21.8101172,16.18965 21.8338828,16.2059625 C21.9972891,16.3184625 22.1597109,16.43265 22.3183359,16.5514781 C22.4858203,16.6771969 22.6502109,16.8069937 22.8122109,16.9396031 C22.9944609,17.0888062 23.1731953,17.2422281 23.3479922,17.4000094 C25.2730078,19.1363062 26.7357891,21.3749156 27.5286328,23.9101031 C27.8527734,24.94665 28.0624453,26.0312906 28.1485078,27.152775" id="Fill-6" fill="#D52104"></path>
            <mask id="mask-4" fill="white">
                <use xlink:href="#path-3"></use>
            </mask>
            <g id="Clip-9"></g>
            <path d="M114.235266,11.6656875 L117.550078,11.6656875 L117.550078,8.72957812 L114.235266,8.72957812 L114.235266,11.6656875 Z M106.995469,11.6656875 L110.341219,11.6656875 L110.341219,8.72957812 L106.995469,8.72957812 L106.995469,11.6656875 Z M99.940875,11.6656875 L103.101563,11.6656875 L103.101563,8.72957812 L99.940875,8.72957812 L99.940875,11.6656875 Z M98.2550625,5.2351875 C96.9860625,5.2351875 95.9537344,6.25809375 95.9537344,7.51570312 L95.9537344,15.1602187 L103.498828,15.1602187 C101.879391,18.0925313 99.7328906,20.2277812 96.9525938,21.6765 C96.3552188,21.9878438 95.9184375,22.5323438 95.7546094,23.1703594 C95.5945781,23.79375 95.7037031,24.4334531 96.0621563,24.971625 L96.7692188,26.0333438 L97.0506094,25.9243594 C99.8534063,24.838875 102.321375,23.0841562 104.388844,20.7071719 L114.942891,20.7071719 C113.877094,22.4919844 112.313766,24.0519375 110.285672,25.3532813 C109.199063,24.4546875 107.933719,23.5299375 106.520859,22.6013906 C105.615234,22.0065469 104.398688,22.1127187 103.627359,22.8540938 L102.17625,24.2489531 L102.613031,24.498 C104.133047,25.3645313 105.496125,26.2534219 106.673719,27.1454063 C103.613578,28.3317188 99.7847813,29.1324375 95.2805625,29.5270313 L94.7063906,29.577375 L95.9062031,31.7619844 C96.3106406,32.4991406 97.1026406,32.9582812 97.9320469,32.9582812 C98.017125,32.9582812 98.1027656,32.9533594 98.1884063,32.9435156 C109.48425,31.6395 116.564016,27.5173594 119.230969,20.6914219 C119.391703,20.2795312 119.473266,19.8251719 119.473266,19.3407187 C119.473266,18.08325 118.441078,17.0602031 117.172078,17.0602031 L106.892953,17.0602031 C107.051297,16.7003438 107.102344,16.3022344 107.033438,15.906375 C106.986328,15.6356719 106.887188,15.3833906 106.744313,15.1602187 L119.23575,15.1602187 C120.504609,15.1602187 121.537078,14.1371719 121.537078,12.8795625 L121.537078,5.2351875 L98.2550625,5.2351875 Z" id="Fill-8" fill="#050505" mask="url(#mask-4)"></path>
            <path d="M69.7744078,4.477275 L67.8908766,3.58247812 L67.7692359,4.00941562 C66.4151578,8.75832188 64.3046578,12.957525 61.4965172,16.4903062 L61.3740328,16.6444312 L61.4402672,16.8638062 C61.6943766,17.7026344 62.3868141,18.3222281 63.2477203,18.4805719 C63.8043141,18.5830875 64.3651266,18.4797281 64.8360797,18.2057906 L64.8360797,31.6160719 C64.8360797,32.90715 65.8845797,33.9574781 67.1734078,33.9574781 L68.8838297,33.9574781 L68.8838297,12.2556656 C69.6808922,10.7169469 70.3848609,9.07922812 70.9770328,7.38638437 C71.3769703,6.243525 70.8598922,4.99294687 69.7744078,4.477275" id="Fill-10" fill="#050505" mask="url(#mask-4)"></path>
            <path d="M84.3612844,10.6842094 C83.7925969,12.4473656 83.21505,13.9759594 82.6002375,15.3419906 L79.5731438,15.3419906 C79.0282219,13.5997875 78.4158,12.0361781 77.7512063,10.6842094 L84.3612844,10.6842094 Z M87.5797688,13.8482719 C87.8115188,13.2600375 87.7940813,12.6168188 87.5309719,12.0373031 C87.26505,11.4523031 86.7865031,11.0114437 86.1833625,10.7960062 L85.87005,10.6842094 L89.1827531,10.6842094 C90.1336594,10.6842094 90.9075188,9.909225 90.9075188,8.95649062 L90.9075188,6.78706875 L82.9039875,6.78706875 L82.8346594,6.5494125 C82.727925,6.1837875 82.6238625,5.82688125 82.5198,5.48150625 C82.2267375,4.50936563 81.3074719,3.83042813 80.2841438,3.83056875 L77.5975031,3.83056875 L77.8253156,4.35608438 C78.0916594,4.96935 78.4887844,5.97720937 78.772425,6.78706875 L73.3000031,6.78706875 C72.3489563,6.78706875 71.5752375,7.56205313 71.5752375,8.5147875 L71.5752375,10.6842094 L76.3732219,10.6842094 L76.1494875,10.7688656 C75.5464875,10.9971 75.0579563,11.4694594 74.80905,12.0650062 C74.5619719,12.6561937 74.5674563,13.3011 74.8248,13.8808969 C75.0361594,14.3571938 75.2379563,14.8467094 75.4273781,15.3419906 L72.6885656,15.3419906 C71.3997375,15.3419906 70.3512375,16.3923188 70.3512375,17.6832562 L70.3512375,19.3012875 L89.3865188,19.3012875 C90.6753469,19.3012875 91.7238469,18.2509594 91.7238469,16.9598813 L91.7238469,15.3419906 L86.9492063,15.3419906 C87.1598625,14.8791937 87.3679875,14.3860219 87.5797688,13.8482719 Z" id="Fill-11" fill="#050505" mask="url(#mask-4)"></path>
            <path d="M76.7845781,28.6749844 L85.165125,28.6749844 L85.165125,24.8035781 L76.7845781,24.8035781 L76.7845781,28.6749844 Z M72.7053281,23.3557031 L72.7053281,34.0903125 L76.5017812,32.4402188 L85.5823594,32.4402188 L86.6754375,32.4367031 C88.1030625,32.4324844 89.2644844,31.3139531 89.2644844,29.9434219 L89.2644844,21.1048594 L75.0499687,21.1048594 C73.7570625,21.1048594 72.7053281,22.1145469 72.7053281,23.3557031 Z" id="Fill-12" fill="#050505" mask="url(#mask-4)"></path>
        </g>
    </g>
</svg>